<?xml version="1.0" encoding="UTF-8"?>
<svg width="532px" height="111px" viewBox="0 0 532 111" version="1.1" xmlns="http://www.w3.org/2000/svg" xmlns:xlink="http://www.w3.org/1999/xlink">
    <!-- Generator: Sketch 52.4 (67378) - http://www.bohemiancoding.com/sketch -->
    <title>logo-black-on-white</title>
    <desc>Created with Sketch.</desc>
    <g id="logo-black-on-white" stroke="none" stroke-width="1" fill="none" fill-rule="evenodd">
        <text id="BLACK-LAB-Copy-2" font-family="ProductSans-Bold, Product Sans" font-size="64" font-weight="bold" letter-spacing="5" fill="#28434E">
            <tspan x="150.448" y="61">BLACK LAB</tspan>
        </text>
        <text id="SOFTWARE-Copy-2" font-family="ProductSans-Regular, Product Sans" font-size="24" font-weight="normal" letter-spacing="5" fill="#28434E">
            <tspan x="154.42" y="98">SOFTWARE</tspan>
        </text>
        <path d="M8.82618922,86.0078611 C3.23653003,77.340747 0,67.0619132 0,56.0398804 C0,25.0899091 1.40648801,0 32.8867187,0 C64.3669495,0 114,25.0899091 114,56.0398804 C114,83.2239302 94.3127726,105.887235 68.1913485,111 C68.3370667,108.498979 68.5560144,106.002134 68.8480051,103.512599 C69.6844701,96.1759452 71.5432813,88.5274833 68.6435359,81.5026369 C68.0487163,78.6963667 69.331296,77.9993846 69.4056485,76.1101961 C69.4033006,75.6974497 69.1218037,75.3371069 68.7178883,75.2297976 L68.4576548,75.211456 C68.676272,74.2655821 68.955658,73.3343915 69.2941198,72.4235274 C69.3614698,72.1495938 69.3000408,71.8602978 69.1269138,71.6360818 C68.9537869,71.4118657 68.687424,71.2766395 68.4018904,71.2680044 C66.7289604,71.1579546 66.5430793,69.8190152 65.9668478,68.8652502 C65.8553191,68.6634922 64.8143849,66.9026952 64.6285038,66.6275707 C63.6247457,65.1418982 63.5689814,65.6738056 62.7696926,63.9496919 C59.6283017,57.3100199 61.171115,50.2301487 65.7623786,44.5625833 L68.0301282,43.8289179 C71.265693,42.9773595 74.3860152,41.7457807 77.324184,40.1605909 C79.1078386,39.0898174 80.6973764,37.7321379 82.0269762,36.1437727 C83.2880355,34.6603124 84.213312,32.9280997 84.7408405,31.0631397 C84.9923611,29.9687678 85.061423,28.8412591 84.9453098,27.7249621 L84.9453098,26.5144142 L84.7222524,26.2943145 C83.8300231,25.5606491 82.5102671,24.7536172 82.1199168,23.6347774 C81.967522,23.2693216 82.1201,22.8493529 82.4730909,22.6626708 C82.6032077,22.0757384 82.7705007,21.5254894 82.9006175,20.9568987 C80.3594644,21.2236884 77.8342178,21.6216356 75.3352561,22.149105 L74.2385575,22.3875462 C72.441905,23.0198912 70.4867109,23.0649075 68.662124,22.5159377 C67.8449011,21.9995368 67.068205,21.4232061 66.33861,20.7918239 C65.2046763,19.7050269 63.8205967,18.9057305 62.3049898,18.4624363 C59.9571428,17.9868452 57.5469594,17.8877525 55.167155,18.1689701 C52.3787316,18.4331094 49.6362357,19.0495401 47.006974,20.0031336 C44.9279204,20.9356273 43.0814796,22.3067909 41.5978335,24.0199518 C40.945196,24.8374734 40.4074743,25.7382451 39.9992559,26.6978305 L39.8319629,27.2664212 C39.683258,29.3023427 42.8618251,32.0169048 44.3116978,32.7689118 L45.2411033,33.2274527 C45.9525709,33.6995773 46.5441271,34.3272249 46.9697977,35.0616162 C47.9735558,36.5656303 48.679904,37.4276872 50.018248,36.8957798 C50.5413563,36.6983056 51.0073124,36.3770911 51.3751802,35.9603564 C52.2488809,34.6296941 52.6958455,33.0700819 52.6577599,31.4849973 C52.7232739,30.7694825 52.83503,30.0588263 52.9923459,29.3573676 C53.4639871,28.2795298 54.1247038,27.2922826 54.9440976,26.4410476 C55.836327,25.3588911 57.174671,23.7264856 56.8029088,23.304628 C56.5478091,22.9946935 56.5478091,22.5507476 56.8029088,22.2408131 C56.9801915,22.0265496 57.2475872,21.9047726 57.5278451,21.9106637 C57.7819813,21.9234884 58.0155888,22.0523028 58.1598409,22.2591548 C58.801951,23.0255584 58.801951,24.1339466 58.1598409,24.9003503 C57.977316,25.2068019 57.7657002,25.4954508 57.5278451,25.7624071 C57.2676116,26.0558733 56.9887899,26.3493395 56.6913801,26.624464 C56.3939703,26.8995885 56.1337368,27.174713 55.8920913,27.4681792 C55.7373603,27.6484569 55.5945559,27.8383802 55.4645647,28.0367699 C54.7979437,29.0767611 54.4673407,30.2920877 54.516571,31.5216806 L54.516571,32.0902713 C54.2984543,34.0458805 53.5034924,35.8953281 52.2302333,37.4093456 C51.2498346,38.8000148 49.5268457,39.4843942 47.843439,39.1518009 C46.9091473,38.9598741 46.1791338,38.2395404 45.9846278,37.3176374 C45.8811283,37.0015644 45.7505397,36.6947621 45.5942775,36.4005556 C45.0137898,35.5010738 44.1526101,34.8122528 43.1406467,34.4380006 C41.7493268,33.6068891 40.4311418,32.6620366 39.1999671,31.6133888 C37.6956782,34.2750543 36.5638959,37.1256068 35.8355189,40.0872243 C35.2406993,42.7100782 34.0882364,46.0115725 34.4971748,48.7628178 C34.4545894,48.8074884 34.4171822,48.8567032 34.3856462,48.9095509 C32.6630088,52.1824916 31.4117317,55.6766511 30.6680238,59.2909165 C30.5379071,60.1896567 30.9282574,60.978347 30.6680238,61.730354 C30.3520259,63.0326101 29.6642658,63.8396421 29.4597966,65.1052149 C27.5638092,68.8102253 22.9353694,71.5431289 19.9426834,74.5511571 C16.9499975,77.5591853 14.5521311,80.0536477 11.875443,82.8232347 C10.8885057,83.9126627 9.8716788,84.9745862 8.82618922,86.0078611 Z M67.1123918,26.8192457 L67.0217947,26.8192457 C66.9775442,26.8894386 66.9227545,26.9547511 66.8587199,27.0136405 C66.676972,27.1151822 66.4825944,27.2004024 66.2788985,27.267849 C66.1116925,27.3546687 65.9359158,27.4297016 65.7534354,27.4921507 C64.5879553,27.8660473 63.2950318,27.8660473 62.1295517,27.4921507 C61.8921295,27.4319943 61.7036832,27.2820292 61.622208,27.0884077 C61.5405706,26.8714113 61.5804283,26.6356748 61.7309245,26.4454096 C61.7554088,26.3127588 61.8244587,26.188428 61.9302381,26.086527 C62.1787009,25.8386856 62.607878,25.7754378 62.9449255,25.9369926 C63.452701,26.1811287 64.024802,26.3196912 64.611912,26.3407355 C64.9842307,26.3019649 65.3293861,26.1595414 65.5903606,25.9369926 C65.8971944,25.6416721 66.4301877,25.5957161 66.8043617,25.8323185 C67.0169137,25.9191346 67.1731314,26.078022 67.2322872,26.2675569 C67.291443,26.4570918 67.2476742,26.6584904 67.1123918,26.8192457 Z" id="Combined-Shape" fill="#28434E" fill-rule="nonzero"></path>
    </g>
</svg>