<?xml version="1.0" encoding="UTF-8"?>
<svg width="532px" height="111px" viewBox="0 0 532 111" version="1.1" xmlns="http://www.w3.org/2000/svg" xmlns:xlink="http://www.w3.org/1999/xlink">
    <!-- Generator: Sketch 52.6 (67491) - http://www.bohemiancoding.com/sketch -->
    <title>logo-white-on-black</title>
    <desc>Created with Sketch.</desc>
    <g id="logo-white-on-black" stroke="none" stroke-width="1" fill="none" fill-rule="evenodd">
        <path d="M155.056,15.176 L172.976,15.176 C174.938676,15.176 176.773325,15.4853302 178.48,16.104 C180.186675,16.7226698 181.669327,17.5759946 182.928,18.664 C184.186673,19.7520054 185.178663,21.0213261 185.904,22.472 C186.629337,23.9226739 186.992,25.4799917 186.992,27.144 C186.992,29.5760122 186.405339,31.6133251 185.232,33.256 C184.058661,34.8986749 182.597342,36.1466624 180.848,37 L180.848,37.512 C183.194678,38.3653376 185.08266,39.6986576 186.512,41.512 C187.94134,43.3253424 188.656,45.5759866 188.656,48.264 C188.656,50.2266765 188.261337,51.9866589 187.472,53.544 C186.682663,55.1013411 185.60534,56.4346611 184.24,57.544 C182.87466,58.6533389 181.285342,59.5066637 179.472,60.104 C177.658658,60.7013363 175.706677,61 173.616,61 L155.056,61 L155.056,15.176 Z M172.336,33.864 C174.341343,33.864 175.887995,33.3200054 176.976,32.232 C178.064005,31.1439946 178.608,29.8533408 178.608,28.36 C178.608,26.8666592 178.074672,25.586672 177.008,24.52 C175.941328,23.453328 174.469343,22.92 172.592,22.92 L163.696,22.92 L163.696,33.864 L172.336,33.864 Z M173.296,53.064 C175.472011,53.064 177.135994,52.5200054 178.288,51.432 C179.440006,50.3439946 180.016,48.9466752 180.016,47.24 C180.016,45.5333248 179.429339,44.1146723 178.256,42.984 C177.082661,41.8533277 175.344012,41.288 173.04,41.288 L163.696,41.288 L163.696,53.064 L173.296,53.064 Z M200.312,15.176 L208.952,15.176 L208.952,52.808 L228.344,52.808 L228.344,61 L200.312,61 L200.312,15.176 Z M252.864,15.176 L262.72,15.176 L279.936,61 L270.4,61 L266.624,50.056 L248.96,50.056 L245.184,61 L235.648,61 L252.864,15.176 Z M263.808,42.12 L259.712,30.664 L258.048,25.096 L257.536,25.096 L255.872,30.664 L251.776,42.12 L263.808,42.12 Z M329.096,53.64 C326.834655,56.3706803 324.168015,58.4506595 321.096,59.88 C318.023985,61.3093405 314.589352,62.024 310.792,62.024 C307.37865,62.024 304.210681,61.4053395 301.288,60.168 C298.365319,58.9306605 295.837344,57.245344 293.704,55.112 C291.570656,52.978656 289.88534,50.4506813 288.648,47.528 C287.41066,44.6053187 286.792,41.4586835 286.792,38.088 C286.792,34.7173165 287.41066,31.5706813 288.648,28.648 C289.88534,25.7253187 291.570656,23.197344 293.704,21.064 C295.837344,18.930656 298.365319,17.2453395 301.288,16.008 C304.210681,14.7706605 307.37865,14.152 310.792,14.152 C314.461352,14.152 317.693319,14.7919936 320.488,16.072 C323.282681,17.3520064 325.767989,19.2079878 327.944,21.64 L321.864,27.528 C320.49866,25.9493254 318.930676,24.6906714 317.16,23.752 C315.389324,22.8133286 313.288012,22.344 310.856,22.344 C308.722656,22.344 306.717343,22.7173296 304.84,23.464 C302.962657,24.2106704 301.330674,25.2666598 299.944,26.632 C298.557326,27.9973402 297.458671,29.650657 296.648,31.592 C295.837329,33.533343 295.432,35.6986547 295.432,38.088 C295.432,40.4773453 295.837329,42.642657 296.648,44.584 C297.458671,46.525343 298.557326,48.1786598 299.944,49.544 C301.330674,50.9093402 302.962657,51.9653296 304.84,52.712 C306.717343,53.4586704 308.722656,53.832 310.856,53.832 C313.416013,53.832 315.68799,53.3093386 317.672,52.264 C319.65601,51.2186614 321.415992,49.7360096 322.952,47.816 L329.096,53.64 Z M341.008,15.176 L349.648,15.176 L349.648,34.824 L350.16,34.824 L366.928,15.176 L377.36,15.176 L377.36,15.688 L360.784,34.632 L379.088,60.488 L379.088,61 L368.528,61 L354.896,41.48 L349.648,47.56 L349.648,61 L341.008,61 L341.008,15.176 Z M407.904,15.176 L416.544,15.176 L416.544,52.808 L435.936,52.808 L435.936,61 L407.904,61 L407.904,15.176 Z M460.456,15.176 L470.312,15.176 L487.528,61 L477.992,61 L474.216,50.056 L456.552,50.056 L452.776,61 L443.24,61 L460.456,15.176 Z M471.4,42.12 L467.304,30.664 L465.64,25.096 L465.128,25.096 L463.464,30.664 L459.368,42.12 L471.4,42.12 Z M497.904,15.176 L515.824,15.176 C517.786676,15.176 519.621325,15.4853302 521.328,16.104 C523.034675,16.7226698 524.517327,17.5759946 525.776,18.664 C527.034673,19.7520054 528.026663,21.0213261 528.752,22.472 C529.477337,23.9226739 529.84,25.4799917 529.84,27.144 C529.84,29.5760122 529.253339,31.6133251 528.08,33.256 C526.906661,34.8986749 525.445342,36.1466624 523.696,37 L523.696,37.512 C526.042678,38.3653376 527.93066,39.6986576 529.36,41.512 C530.78934,43.3253424 531.504,45.5759866 531.504,48.264 C531.504,50.2266765 531.109337,51.9866589 530.32,53.544 C529.530663,55.1013411 528.45334,56.4346611 527.088,57.544 C525.72266,58.6533389 524.133342,59.5066637 522.32,60.104 C520.506658,60.7013363 518.554677,61 516.464,61 L497.904,61 L497.904,15.176 Z M515.184,33.864 C517.189343,33.864 518.735995,33.3200054 519.824,32.232 C520.912005,31.1439946 521.456,29.8533408 521.456,28.36 C521.456,26.8666592 520.922672,25.586672 519.856,24.52 C518.789328,23.453328 517.317343,22.92 515.44,22.92 L506.544,22.92 L506.544,33.864 L515.184,33.864 Z M516.144,53.064 C518.320011,53.064 519.983994,52.5200054 521.136,51.432 C522.288006,50.3439946 522.864,48.9466752 522.864,47.24 C522.864,45.5333248 522.277339,44.1146723 521.104,42.984 C519.930661,41.8533277 518.192012,41.288 515.888,41.288 L506.544,41.288 L506.544,53.064 L516.144,53.064 Z" id="BLACK-LAB-Copy-2" fill="#FFFFFF"></path>
        <path d="M166.756,93.416 C166.756,94.9200075 166.204006,96.1279954 165.1,97.04 C163.979994,97.9360045 162.620008,98.384 161.02,98.384 C159.595993,98.384 158.340005,97.9680042 157.252,97.136 C156.163995,96.3039958 155.412002,95.1680072 154.996,93.728 L157.108,92.864 C157.252001,93.3760026 157.451999,93.8399979 157.708,94.256 C157.964001,94.6720021 158.263998,95.0279985 158.608,95.324 C158.952002,95.6200015 159.331998,95.8519992 159.748,96.02 C160.164002,96.1880008 160.603998,96.272 161.068,96.272 C162.076005,96.272 162.899997,96.0120026 163.54,95.492 C164.180003,94.9719974 164.5,94.2800043 164.5,93.416 C164.5,92.6959964 164.236003,92.0800026 163.708,91.568 C163.211998,91.0719975 162.284007,90.5920023 160.924,90.128 C159.547993,89.6319975 158.692002,89.2960009 158.356,89.12 C156.531991,88.1919954 155.62,86.824009 155.62,85.016 C155.62,83.7519937 156.123995,82.6720045 157.132,81.776 C158.156005,80.8799955 159.411993,80.432 160.9,80.432 C162.212007,80.432 163.347995,80.7679966 164.308,81.44 C165.268005,82.0960033 165.907998,82.919995 166.228,83.912 L164.164,84.776 C163.971999,84.1359968 163.592003,83.6040021 163.024,83.18 C162.455997,82.7559979 161.764004,82.544 160.948,82.544 C160.083996,82.544 159.356003,82.7839976 158.764,83.264 C158.171997,83.7120022 157.876,84.2959964 157.876,85.016 C157.876,85.608003 158.107998,86.1199978 158.572,86.552 C159.084003,86.9840022 160.195991,87.495997 161.908,88.088 C163.652009,88.680003 164.895996,89.4039957 165.64,90.26 C166.384004,91.1160043 166.756,92.1679938 166.756,93.416 Z M191.244,89.408 C191.244,91.9520127 190.396008,94.0799914 188.7,95.792 C186.987991,97.5200086 184.892012,98.384 182.412,98.384 C179.915988,98.384 177.820008,97.5200086 176.124,95.792 C174.427992,94.0799914 173.58,91.9520127 173.58,89.408 C173.58,86.8639873 174.427992,84.7360086 176.124,83.024 C177.820008,81.2959914 179.915988,80.432 182.412,80.432 C184.908012,80.432 187.003992,81.3039913 188.7,83.048 C190.396008,84.7600086 191.244,86.8799874 191.244,89.408 Z M175.836,89.408 C175.836,91.3920099 176.459994,93.0319935 177.708,94.328 C178.972006,95.6240065 180.539991,96.272 182.412,96.272 C184.284009,96.272 185.843994,95.6240065 187.092,94.328 C188.356006,93.0479936 188.988,91.40801 188.988,89.408 C188.988,87.40799 188.356006,85.7680064 187.092,84.488 C185.843994,83.1919935 184.284009,82.544 182.412,82.544 C180.539991,82.544 178.972006,83.1919935 177.708,84.488 C176.459994,85.7840065 175.836,87.4239901 175.836,89.408 Z M201.068,90.632 L201.068,98 L198.86,98 L198.86,80.816 L208.892,80.816 L208.892,82.928 L201.068,82.928 L201.068,88.568 L208.124,88.568 L208.124,90.632 L201.068,90.632 Z M222.244,82.928 L222.244,98 L220.036,98 L220.036,82.928 L215.236,82.928 L215.236,80.816 L227.044,80.816 L227.044,82.928 L222.244,82.928 Z M252.06,80.816 L254.364,80.816 L249.78,98 L247.524,98 L243.828,86.672 L243.732,86.672 L240.036,98 L237.78,98 L233.004,80.816 L235.308,80.816 L238.932,94.328 L239.028,94.328 L242.748,83.12 L244.812,83.12 L248.532,94.328 L248.628,94.328 L252.06,80.816 Z M266.636,83.528 L263.828,91.28 L269.54,91.28 L266.732,83.528 L266.636,83.528 Z M261.404,98 L258.956,98 L265.436,80.816 L267.932,80.816 L274.412,98 L271.964,98 L270.308,93.344 L263.084,93.344 L261.404,98 Z M283.636,82.928 L283.636,88.976 L287.188,88.976 C288.084004,88.976 288.843997,88.6840029 289.468,88.1 C290.092003,87.5159971 290.404,86.7920043 290.404,85.928 C290.404,85.127996 290.112003,84.428003 289.528,83.828 C288.943997,83.227997 288.212004,82.928 287.332,82.928 L283.636,82.928 Z M283.636,98 L281.428,98 L281.428,80.816 L287.284,80.816 C288.772007,80.816 290.039995,81.3079951 291.088,82.292 C292.136005,83.2760049 292.66,84.4879928 292.66,85.928 C292.66,87.1120059 292.272004,88.1639954 291.496,89.084 C290.719996,90.0040046 289.740006,90.5919987 288.556,90.848 L288.508,90.92 L293.332,97.904 L293.332,98 L290.716,98 L286.084,91.04 L283.636,91.04 L283.636,98 Z M310.332,80.816 L310.332,82.928 L302.508,82.928 L302.508,88.376 L309.564,88.376 L309.564,90.44 L302.508,90.44 L302.508,95.888 L310.332,95.888 L310.332,98 L300.3,98 L300.3,80.816 L310.332,80.816 Z" id="SOFTWARE-Copy-2" fill="#FFFFFF"></path>
        <path d="M8.82618922,86.0078611 C3.23653003,77.340747 0,67.0619132 0,56.0398804 C0,25.0899091 1.40648801,0 32.8867187,0 C64.3669495,0 114,25.0899091 114,56.0398804 C114,83.2239302 94.3127726,105.887235 68.1913485,111 C68.3370667,108.498979 68.5560144,106.002134 68.8480051,103.512599 C69.6844701,96.1759452 71.5432813,88.5274833 68.6435359,81.5026369 C68.0487163,78.6963667 69.331296,77.9993846 69.4056485,76.1101961 C69.4033006,75.6974497 69.1218037,75.3371069 68.7178883,75.2297976 L68.4576548,75.211456 C68.676272,74.2655821 68.955658,73.3343915 69.2941198,72.4235274 C69.3614698,72.1495938 69.3000408,71.8602978 69.1269138,71.6360818 C68.9537869,71.4118657 68.687424,71.2766395 68.4018904,71.2680044 C66.7289604,71.1579546 66.5430793,69.8190152 65.9668478,68.8652502 C65.8553191,68.6634922 64.8143849,66.9026952 64.6285038,66.6275707 C63.6247457,65.1418982 63.5689814,65.6738056 62.7696926,63.9496919 C59.6283017,57.3100199 61.171115,50.2301487 65.7623786,44.5625833 L68.0301282,43.8289179 C71.265693,42.9773595 74.3860152,41.7457807 77.324184,40.1605909 C79.1078386,39.0898174 80.6973764,37.7321379 82.0269762,36.1437727 C83.2880355,34.6603124 84.213312,32.9280997 84.7408405,31.0631397 C84.9923611,29.9687678 85.061423,28.8412591 84.9453098,27.7249621 L84.9453098,26.5144142 L84.7222524,26.2943145 C83.8300231,25.5606491 82.5102671,24.7536172 82.1199168,23.6347774 C81.967522,23.2693216 82.1201,22.8493529 82.4730909,22.6626708 C82.6032077,22.0757384 82.7705007,21.5254894 82.9006175,20.9568987 C80.3594644,21.2236884 77.8342178,21.6216356 75.3352561,22.149105 L74.2385575,22.3875462 C72.441905,23.0198912 70.4867109,23.0649075 68.662124,22.5159377 C67.8449011,21.9995368 67.068205,21.4232061 66.33861,20.7918239 C65.2046763,19.7050269 63.8205967,18.9057305 62.3049898,18.4624363 C59.9571428,17.9868452 57.5469594,17.8877525 55.167155,18.1689701 C52.3787316,18.4331094 49.6362357,19.0495401 47.006974,20.0031336 C44.9279204,20.9356273 43.0814796,22.3067909 41.5978335,24.0199518 C40.945196,24.8374734 40.4074743,25.7382451 39.9992559,26.6978305 L39.8319629,27.2664212 C39.683258,29.3023427 42.8618251,32.0169048 44.3116978,32.7689118 L45.2411033,33.2274527 C45.9525709,33.6995773 46.5441271,34.3272249 46.9697977,35.0616162 C47.9735558,36.5656303 48.679904,37.4276872 50.018248,36.8957798 C50.5413563,36.6983056 51.0073124,36.3770911 51.3751802,35.9603564 C52.2488809,34.6296941 52.6958455,33.0700819 52.6577599,31.4849973 C52.7232739,30.7694825 52.83503,30.0588263 52.9923459,29.3573676 C53.4639871,28.2795298 54.1247038,27.2922826 54.9440976,26.4410476 C55.836327,25.3588911 57.174671,23.7264856 56.8029088,23.304628 C56.5478091,22.9946935 56.5478091,22.5507476 56.8029088,22.2408131 C56.9801915,22.0265496 57.2475872,21.9047726 57.5278451,21.9106637 C57.7819813,21.9234884 58.0155888,22.0523028 58.1598409,22.2591548 C58.801951,23.0255584 58.801951,24.1339466 58.1598409,24.9003503 C57.977316,25.2068019 57.7657002,25.4954508 57.5278451,25.7624071 C57.2676116,26.0558733 56.9887899,26.3493395 56.6913801,26.624464 C56.3939703,26.8995885 56.1337368,27.174713 55.8920913,27.4681792 C55.7373603,27.6484569 55.5945559,27.8383802 55.4645647,28.0367699 C54.7979437,29.0767611 54.4673407,30.2920877 54.516571,31.5216806 L54.516571,32.0902713 C54.2984543,34.0458805 53.5034924,35.8953281 52.2302333,37.4093456 C51.2498346,38.8000148 49.5268457,39.4843942 47.843439,39.1518009 C46.9091473,38.9598741 46.1791338,38.2395404 45.9846278,37.3176374 C45.8811283,37.0015644 45.7505397,36.6947621 45.5942775,36.4005556 C45.0137898,35.5010738 44.1526101,34.8122528 43.1406467,34.4380006 C41.7493268,33.6068891 40.4311418,32.6620366 39.1999671,31.6133888 C37.6956782,34.2750543 36.5638959,37.1256068 35.8355189,40.0872243 C35.2406993,42.7100782 34.0882364,46.0115725 34.4971748,48.7628178 C34.4545894,48.8074884 34.4171822,48.8567032 34.3856462,48.9095509 C32.6630088,52.1824916 31.4117317,55.6766511 30.6680238,59.2909165 C30.5379071,60.1896567 30.9282574,60.978347 30.6680238,61.730354 C30.3520259,63.0326101 29.6642658,63.8396421 29.4597966,65.1052149 C27.5638092,68.8102253 22.9353694,71.5431289 19.9426834,74.5511571 C16.9499975,77.5591853 14.5521311,80.0536477 11.875443,82.8232347 C10.8885057,83.9126627 9.8716788,84.9745862 8.82618922,86.0078611 Z M67.1123918,26.8192457 L67.0217947,26.8192457 C66.9775442,26.8894386 66.9227545,26.9547511 66.8587199,27.0136405 C66.676972,27.1151822 66.4825944,27.2004024 66.2788985,27.267849 C66.1116925,27.3546687 65.9359158,27.4297016 65.7534354,27.4921507 C64.5879553,27.8660473 63.2950318,27.8660473 62.1295517,27.4921507 C61.8921295,27.4319943 61.7036832,27.2820292 61.622208,27.0884077 C61.5405706,26.8714113 61.5804283,26.6356748 61.7309245,26.4454096 C61.7554088,26.3127588 61.8244587,26.188428 61.9302381,26.086527 C62.1787009,25.8386856 62.607878,25.7754378 62.9449255,25.9369926 C63.452701,26.1811287 64.024802,26.3196912 64.611912,26.3407355 C64.9842307,26.3019649 65.3293861,26.1595414 65.5903606,25.9369926 C65.8971944,25.6416721 66.4301877,25.5957161 66.8043617,25.8323185 C67.0169137,25.9191346 67.1731314,26.078022 67.2322872,26.2675569 C67.291443,26.4570918 67.2476742,26.6584904 67.1123918,26.8192457 Z" id="Combined-Shape" fill="#FFFFFF" fill-rule="nonzero"></path>
    </g>
</svg>